<svg xmlns="http://www.w3.org/2000/svg" width="1005" height="600"><rect width="1005" height="600" x="0" y="0" fill="#FFFFFF" id="backgorund"/><g id="viz"><g transform="translate(0,0)"><g transform="translate(120,20)"><g class="bars"><rect id="undefined - Zimbabwe" x="0" y="0.01666617064967113" height="9.316389393172823" width="675" fill="rgb(144, 12, 0)"/><rect id="undefined - Mauritius" x="0" y="9.349721734472178" height="9.316389393172823" width="357.75" fill="rgb(116, 254, 100)"/><rect id="undefined - Kenya" x="0" y="18.682777298294685" height="9.316389393172823" width="324" fill="rgb(71, 246, 138)"/><rect id="undefined - United Arab Emirates" x="0" y="28.015832862117193" height="9.316389393172823" width="310.5" fill="rgb(166, 21, 3)"/><rect id="undefined - Qatar" x="0" y="37.3488884259397" height="9.316389393172823" width="283.5" fill="rgb(252, 189, 40)"/><rect id="undefined - Lebanon" x="0" y="46.6819439897622" height="9.316389393172823" width="222.75" fill="rgb(92, 252, 118)"/><rect id="undefined - Ireland" x="0" y="56.014999553584715" height="9.316389393172823" width="216" fill="rgb(55, 237, 159)"/><rect id="undefined - Philippines" x="0" y="65.34805511740721" height="9.316389393172823" width="216" fill="rgb(237, 208, 45)"/><rect id="undefined - Singapore" x="0" y="74.68111068122973" height="9.316389393172823" width="202.5" fill="rgb(255, 145, 32)"/><rect id="undefined - South Africa" x="0" y="84.01416624505224" height="9.316389393172823" width="189.00000000000003" fill="rgb(255, 133, 30)"/><rect id="undefined - Ghana" x="0" y="93.34722180887474" height="9.316389393172823" width="189.00000000000003" fill="rgb(39, 181, 231)"/><rect id="undefined - Uganda" x="0" y="102.68027737269725" height="9.316389393172823" width="175.5" fill="rgb(176, 27, 6)"/><rect id="undefined - New Zealand" x="0" y="112.01333293651976" height="9.316389393172823" width="168.75" fill="rgb(182, 242, 65)"/><rect id="undefined - Canada" x="0" y="121.34638850034226" height="9.316389393172823" width="162" fill="rgb(75, 77, 205)"/><rect id="undefined - United Kingdom" x="0" y="130.67944406416476" height="9.316389393172823" width="155.25" fill="rgb(157, 16, 0)"/><rect id="undefined - Ethiopia" x="0" y="140.01249962798727" height="9.316389393172823" width="141.75" fill="rgb(51, 148, 248)"/><rect id="undefined - Australia" x="0" y="149.34555519180978" height="9.316389393172823" width="135" fill="rgb(35, 23, 27)"/><rect id="undefined - United States" x="0" y="158.6786107556323" height="9.316389393172823" width="135" fill="rgb(150, 13, 0)"/><rect id="undefined - Bangladesh" x="0" y="168.0116663194548" height="9.316389393172823" width="135" fill="rgb(63, 43, 119)"/><rect id="undefined - Syria" x="0" y="177.3447218832773" height="9.316389393172823" width="135" fill="rgb(221, 63, 17)"/><rect id="undefined - Nigeria" x="0" y="186.6777774470998" height="9.316389393172823" width="135" fill="rgb(194, 237, 60)"/><rect id="undefined - Cyprus" x="0" y="196.0108330109223" height="9.316389393172823" width="128.25" fill="rgb(70, 101, 235)"/><rect id="undefined - Nepal" x="0" y="205.34388857474482" height="9.316389393172823" width="114.75000000000001" fill="rgb(155, 249, 77)"/><rect id="undefined - Pakistan" x="0" y="214.67694413856734" height="9.316389393172823" width="108" fill="rgb(228, 216, 48)"/><rect id="undefined - Tanzania" x="0" y="224.00999970238985" height="9.316389393172823" width="101.25" fill="rgb(210, 53, 14)"/><rect id="undefined - Malaysia" x="0" y="233.34305526621233" height="9.316389393172823" width="101.25" fill="rgb(103, 253, 108)"/><rect id="undefined - Kuwait" x="0" y="242.67611083003484" height="9.316389393172823" width="94.50000000000001" fill="rgb(81, 249, 127)"/><rect id="undefined - Oman" x="0" y="252.00916639385736" height="9.316389393172823" width="94.50000000000001" fill="rgb(218, 224, 52)"/><rect id="undefined - Sri Lanka" x="0" y="261.34222195767984" height="9.316389393172823" width="67.5" fill="rgb(247, 97, 24)"/><rect id="undefined - India" x="0" y="270.6752775215024" height="9.316389393172823" width="67.5" fill="rgb(38, 209, 203)"/><rect id="undefined - Hong Kong" x="0" y="280.00833308532486" height="9.316389393172823" width="54" fill="rgb(37, 200, 213)"/><rect id="undefined - Norway" x="0" y="289.3413886491474" height="9.316389393172823" width="40.5" fill="rgb(206, 231, 56)"/><rect id="undefined - Greece" x="0" y="298.6744442129699" height="9.316389393172823" width="40.5" fill="rgb(38, 191, 223)"/><rect id="undefined - Croatia" x="0" y="308.0074997767924" height="9.316389393172823" width="33.75" fill="rgb(73, 89, 222)"/><rect id="undefined - Sweden" x="0" y="317.3405553406149" height="9.316389393172823" width="33.75" fill="rgb(239, 85, 22)"/><rect id="undefined - Saudi Arabia" x="0" y="326.6736109044374" height="9.316389393172823" width="33.75" fill="rgb(255, 168, 36)"/><rect id="undefined - Serbia" x="0" y="336.00666646825994" height="9.316389393172823" width="20.25" fill="rgb(255, 156, 34)"/><rect id="undefined - Bulgaria" x="0" y="345.3397220320824" height="9.316389393172823" width="20.25" fill="rgb(74, 66, 183)"/><rect id="undefined - Morocco" x="0" y="354.6727775959049" height="9.316389393172823" width="20.25" fill="rgb(142, 252, 84)"/><rect id="undefined - Switzerland" x="0" y="364.00583315972744" height="9.316389393172823" width="20.25" fill="rgb(231, 74, 19)"/><rect id="undefined - Iraq" x="0" y="373.3388887235499" height="9.316389393172823" width="20.25" fill="rgb(48, 231, 170)"/><rect id="undefined - Egypt" x="0" y="382.67194428737247" height="9.316389393172823" width="20.25" fill="rgb(56, 137, 249)"/><rect id="undefined - Denmark" x="0" y="392.00499985119495" height="9.316389393172823" width="20.25" fill="rgb(61, 125, 247)"/><rect id="undefined - Czechia" x="0" y="401.33805541501744" height="9.316389393172823" width="20.25" fill="rgb(66, 113, 243)"/><rect id="undefined - Belgium" x="0" y="410.67111097884" height="9.316389393172823" width="20.25" fill="rgb(70, 54, 154)"/><rect id="undefined - Netherlands" x="0" y="420.00416654266246" height="9.316389393172823" width="13.5" fill="rgb(169, 246, 71)"/><rect id="undefined - Romania" x="0" y="429.337222106485" height="9.316389393172823" width="13.5" fill="rgb(255, 179, 38)"/><rect id="undefined - Turkey" x="0" y="438.6702776703075" height="9.316389393172823" width="13.5" fill="rgb(187, 34, 9)"/><rect id="undefined - Austria" x="0" y="448.00333323413" height="9.316389393172823" width="13.5" fill="rgb(52, 33, 77)"/><rect id="undefined - South Korea" x="0" y="457.3363887979525" height="9.316389393172823" width="6.75" fill="rgb(255, 121, 28)"/><rect id="undefined - Germany" x="0" y="466.669444361775" height="9.316389393172823" width="6.75" fill="rgb(42, 170, 238)"/><rect id="undefined - Vietnam" x="0" y="476.00249992559753" height="9.316389393172823" width="6.75" fill="rgb(145, 11, 0)"/><rect id="undefined - Indonesia" x="0" y="485.33555548942" height="9.316389393172823" width="6.75" fill="rgb(40, 217, 193)"/><rect id="undefined - France" x="0" y="494.66861105324256" height="9.316389393172823" width="6.75" fill="rgb(46, 159, 244)"/><rect id="undefined - Spain" x="0" y="504.00166661706504" height="9.316389393172823" width="6.75" fill="rgb(253, 109, 26)"/><rect id="undefined - Poland" x="0" y="513.3347221808876" height="9.316389393172823" width="6.75" fill="rgb(245, 199, 42)"/><rect id="undefined - Mexico" x="0" y="522.6677777447101" height="9.316389393172823" width="6.75" fill="rgb(129, 253, 92)"/><rect id="undefined - Iran" x="0" y="532.0008333085325" height="9.316389393172823" width="6.75" fill="rgb(43, 224, 182)"/><rect id="undefined - Thailand" x="0" y="541.3338888723551" height="9.316389393172823" width="6.75" fill="rgb(199, 43, 12)"/><rect id="undefined - Italy" x="0" y="550.6669444361776" height="9.316389393172823" width="6.75" fill="rgb(62, 242, 148)"/></g><g id="xAxis" transform="translate(0,560)" fill="none" font-size="10" font-family="sans-serif" text-anchor="middle"><path class="domain" stroke="currentColor" d="M0,6V0H675V6"/><g class="tick" opacity="1" transform="translate(0,0)"><line stroke="currentColor" y2="6"/><text fill="currentColor" y="9" dy="0.71em">0</text></g><g class="tick" opacity="1" transform="translate(67.5,0)"><line stroke="currentColor" y2="6"/><text fill="currentColor" y="9" dy="0.71em">10</text></g><g class="tick" opacity="1" transform="translate(135,0)"><line stroke="currentColor" y2="6"/><text fill="currentColor" y="9" dy="0.71em">20</text></g><g class="tick" opacity="1" transform="translate(202.5,0)"><line stroke="currentColor" y2="6"/><text fill="currentColor" y="9" dy="0.71em">30</text></g><g class="tick" opacity="1" transform="translate(270,0)"><line stroke="currentColor" y2="6"/><text fill="currentColor" y="9" dy="0.71em">40</text></g><g class="tick" opacity="1" transform="translate(337.5,0)"><line stroke="currentColor" y2="6"/><text fill="currentColor" y="9" dy="0.71em">50</text></g><g class="tick" opacity="1" transform="translate(405,0)"><line stroke="currentColor" y2="6"/><text fill="currentColor" y="9" dy="0.71em">60</text></g><g class="tick" opacity="1" transform="translate(472.49999999999994,0)"><line stroke="currentColor" y2="6"/><text fill="currentColor" y="9" dy="0.71em">70</text></g><g class="tick" opacity="1" transform="translate(540,0)"><line stroke="currentColor" y2="6"/><text fill="currentColor" y="9" dy="0.71em">80</text></g><g class="tick" opacity="1" transform="translate(607.5,0)"><line stroke="currentColor" y2="6"/><text fill="currentColor" y="9" dy="0.71em">90</text></g><g class="tick" opacity="1" transform="translate(675,0)"><line stroke="currentColor" y2="6"/><text fill="currentColor" y="9" dy="0.71em">100</text></g><text font-family="Arial, sans-serif" font-size="10" x="675" dy="-5" fill="black" font-weight="bold" text-anchor="end">syria turkey earthquake: (12/10/22 - 3/10/23) [sum]</text></g><g id="yAxis" transform="translate(0,0)" fill="none" font-size="10" font-family="sans-serif" text-anchor="end"><path class="domain" stroke="currentColor" d="M0,0V560"/><g class="tick" opacity="1" transform="translate(0,4.674860867236083)"><line stroke="currentColor" x2="-6"/><text fill="currentColor" x="-9" dy="0.32em">Zimbabwe</text></g><g class="tick" opacity="1" transform="translate(0,14.00791643105859)"><line stroke="currentColor" x2="-6"/><text fill="currentColor" x="-9" dy="0.32em">Mauritius</text></g><g class="tick" opacity="1" transform="translate(0,23.340971994881095)"><line stroke="currentColor" x2="-6"/><text fill="currentColor" x="-9" dy="0.32em">Kenya</text></g><g class="tick" opacity="1" transform="translate(0,32.67402755870361)"><line stroke="currentColor" x2="-6"/><text fill="currentColor" x="-9" dy="0.32em">United Arab Emirates</text></g><g class="tick" opacity="1" transform="translate(0,42.00708312252611)"><line stroke="currentColor" x2="-6"/><text fill="currentColor" x="-9" dy="0.32em">Qatar</text></g><g class="tick" opacity="1" transform="translate(0,51.34013868634862)"><line stroke="currentColor" x2="-6"/><text fill="currentColor" x="-9" dy="0.32em">Lebanon</text></g><g class="tick" opacity="1" transform="translate(0,60.67319425017113)"><line stroke="currentColor" x2="-6"/><text fill="currentColor" x="-9" dy="0.32em">Ireland</text></g><g class="tick" opacity="1" transform="translate(0,70.00624981399362)"><line stroke="currentColor" x2="-6"/><text fill="currentColor" x="-9" dy="0.32em">Philippines</text></g><g class="tick" opacity="1" transform="translate(0,79.33930537781613)"><line stroke="currentColor" x2="-6"/><text fill="currentColor" x="-9" dy="0.32em">Singapore</text></g><g class="tick" opacity="1" transform="translate(0,88.67236094163864)"><line stroke="currentColor" x2="-6"/><text fill="currentColor" x="-9" dy="0.32em">South Africa</text></g><g class="tick" opacity="1" transform="translate(0,98.00541650546114)"><line stroke="currentColor" x2="-6"/><text fill="currentColor" x="-9" dy="0.32em">Ghana</text></g><g class="tick" opacity="1" transform="translate(0,107.33847206928365)"><line stroke="currentColor" x2="-6"/><text fill="currentColor" x="-9" dy="0.32em">Uganda</text></g><g class="tick" opacity="1" transform="translate(0,116.67152763310617)"><line stroke="currentColor" x2="-6"/><text fill="currentColor" x="-9" dy="0.32em">New Zealand</text></g><g class="tick" opacity="1" transform="translate(0,126.00458319692866)"><line stroke="currentColor" x2="-6"/><text fill="currentColor" x="-9" dy="0.32em">Canada</text></g><g class="tick" opacity="1" transform="translate(0,135.33763876075116)"><line stroke="currentColor" x2="-6"/><text fill="currentColor" x="-9" dy="0.32em">United Kingdom</text></g><g class="tick" opacity="1" transform="translate(0,144.67069432457367)"><line stroke="currentColor" x2="-6"/><text fill="currentColor" x="-9" dy="0.32em">Ethiopia</text></g><g class="tick" opacity="1" transform="translate(0,154.0037498883962)"><line stroke="currentColor" x2="-6"/><text fill="currentColor" x="-9" dy="0.32em">Australia</text></g><g class="tick" opacity="1" transform="translate(0,163.3368054522187)"><line stroke="currentColor" x2="-6"/><text fill="currentColor" x="-9" dy="0.32em">United States</text></g><g class="tick" opacity="1" transform="translate(0,172.6698610160412)"><line stroke="currentColor" x2="-6"/><text fill="currentColor" x="-9" dy="0.32em">Bangladesh</text></g><g class="tick" opacity="1" transform="translate(0,182.0029165798637)"><line stroke="currentColor" x2="-6"/><text fill="currentColor" x="-9" dy="0.32em">Syria</text></g><g class="tick" opacity="1" transform="translate(0,191.3359721436862)"><line stroke="currentColor" x2="-6"/><text fill="currentColor" x="-9" dy="0.32em">Nigeria</text></g><g class="tick" opacity="1" transform="translate(0,200.66902770750872)"><line stroke="currentColor" x2="-6"/><text fill="currentColor" x="-9" dy="0.32em">Cyprus</text></g><g class="tick" opacity="1" transform="translate(0,210.00208327133123)"><line stroke="currentColor" x2="-6"/><text fill="currentColor" x="-9" dy="0.32em">Nepal</text></g><g class="tick" opacity="1" transform="translate(0,219.33513883515374)"><line stroke="currentColor" x2="-6"/><text fill="currentColor" x="-9" dy="0.32em">Pakistan</text></g><g class="tick" opacity="1" transform="translate(0,228.66819439897625)"><line stroke="currentColor" x2="-6"/><text fill="currentColor" x="-9" dy="0.32em">Tanzania</text></g><g class="tick" opacity="1" transform="translate(0,238.00124996279874)"><line stroke="currentColor" x2="-6"/><text fill="currentColor" x="-9" dy="0.32em">Malaysia</text></g><g class="tick" opacity="1" transform="translate(0,247.33430552662125)"><line stroke="currentColor" x2="-6"/><text fill="currentColor" x="-9" dy="0.32em">Kuwait</text></g><g class="tick" opacity="1" transform="translate(0,256.66736109044376)"><line stroke="currentColor" x2="-6"/><text fill="currentColor" x="-9" dy="0.32em">Oman</text></g><g class="tick" opacity="1" transform="translate(0,266.00041665426625)"><line stroke="currentColor" x2="-6"/><text fill="currentColor" x="-9" dy="0.32em">Sri Lanka</text></g><g class="tick" opacity="1" transform="translate(0,275.3334722180888)"><line stroke="currentColor" x2="-6"/><text fill="currentColor" x="-9" dy="0.32em">India</text></g><g class="tick" opacity="1" transform="translate(0,284.66652778191127)"><line stroke="currentColor" x2="-6"/><text fill="currentColor" x="-9" dy="0.32em">Hong Kong</text></g><g class="tick" opacity="1" transform="translate(0,293.9995833457338)"><line stroke="currentColor" x2="-6"/><text fill="currentColor" x="-9" dy="0.32em">Norway</text></g><g class="tick" opacity="1" transform="translate(0,303.3326389095563)"><line stroke="currentColor" x2="-6"/><text fill="currentColor" x="-9" dy="0.32em">Greece</text></g><g class="tick" opacity="1" transform="translate(0,312.6656944733788)"><line stroke="currentColor" x2="-6"/><text fill="currentColor" x="-9" dy="0.32em">Croatia</text></g><g class="tick" opacity="1" transform="translate(0,321.9987500372013)"><line stroke="currentColor" x2="-6"/><text fill="currentColor" x="-9" dy="0.32em">Sweden</text></g><g class="tick" opacity="1" transform="translate(0,331.3318056010238)"><line stroke="currentColor" x2="-6"/><text fill="currentColor" x="-9" dy="0.32em">Saudi Arabia</text></g><g class="tick" opacity="1" transform="translate(0,340.66486116484634)"><line stroke="currentColor" x2="-6"/><text fill="currentColor" x="-9" dy="0.32em">Serbia</text></g><g class="tick" opacity="1" transform="translate(0,349.9979167286688)"><line stroke="currentColor" x2="-6"/><text fill="currentColor" x="-9" dy="0.32em">Bulgaria</text></g><g class="tick" opacity="1" transform="translate(0,359.3309722924913)"><line stroke="currentColor" x2="-6"/><text fill="currentColor" x="-9" dy="0.32em">Morocco</text></g><g class="tick" opacity="1" transform="translate(0,368.66402785631385)"><line stroke="currentColor" x2="-6"/><text fill="currentColor" x="-9" dy="0.32em">Switzerland</text></g><g class="tick" opacity="1" transform="translate(0,377.99708342013633)"><line stroke="currentColor" x2="-6"/><text fill="currentColor" x="-9" dy="0.32em">Iraq</text></g><g class="tick" opacity="1" transform="translate(0,387.3301389839589)"><line stroke="currentColor" x2="-6"/><text fill="currentColor" x="-9" dy="0.32em">Egypt</text></g><g class="tick" opacity="1" transform="translate(0,396.66319454778136)"><line stroke="currentColor" x2="-6"/><text fill="currentColor" x="-9" dy="0.32em">Denmark</text></g><g class="tick" opacity="1" transform="translate(0,405.99625011160384)"><line stroke="currentColor" x2="-6"/><text fill="currentColor" x="-9" dy="0.32em">Czechia</text></g><g class="tick" opacity="1" transform="translate(0,415.3293056754264)"><line stroke="currentColor" x2="-6"/><text fill="currentColor" x="-9" dy="0.32em">Belgium</text></g><g class="tick" opacity="1" transform="translate(0,424.66236123924887)"><line stroke="currentColor" x2="-6"/><text fill="currentColor" x="-9" dy="0.32em">Netherlands</text></g><g class="tick" opacity="1" transform="translate(0,433.9954168030714)"><line stroke="currentColor" x2="-6"/><text fill="currentColor" x="-9" dy="0.32em">Romania</text></g><g class="tick" opacity="1" transform="translate(0,443.3284723668939)"><line stroke="currentColor" x2="-6"/><text fill="currentColor" x="-9" dy="0.32em">Turkey</text></g><g class="tick" opacity="1" transform="translate(0,452.66152793071643)"><line stroke="currentColor" x2="-6"/><text fill="currentColor" x="-9" dy="0.32em">Austria</text></g><g class="tick" opacity="1" transform="translate(0,461.9945834945389)"><line stroke="currentColor" x2="-6"/><text fill="currentColor" x="-9" dy="0.32em">South Korea</text></g><g class="tick" opacity="1" transform="translate(0,471.3276390583614)"><line stroke="currentColor" x2="-6"/><text fill="currentColor" x="-9" dy="0.32em">Germany</text></g><g class="tick" opacity="1" transform="translate(0,480.66069462218394)"><line stroke="currentColor" x2="-6"/><text fill="currentColor" x="-9" dy="0.32em">Vietnam</text></g><g class="tick" opacity="1" transform="translate(0,489.9937501860064)"><line stroke="currentColor" x2="-6"/><text fill="currentColor" x="-9" dy="0.32em">Indonesia</text></g><g class="tick" opacity="1" transform="translate(0,499.32680574982896)"><line stroke="currentColor" x2="-6"/><text fill="currentColor" x="-9" dy="0.32em">France</text></g><g class="tick" opacity="1" transform="translate(0,508.65986131365145)"><line stroke="currentColor" x2="-6"/><text fill="currentColor" x="-9" dy="0.32em">Spain</text></g><g class="tick" opacity="1" transform="translate(0,517.992916877474)"><line stroke="currentColor" x2="-6"/><text fill="currentColor" x="-9" dy="0.32em">Poland</text></g><g class="tick" opacity="1" transform="translate(0,527.3259724412965)"><line stroke="currentColor" x2="-6"/><text fill="currentColor" x="-9" dy="0.32em">Mexico</text></g><g class="tick" opacity="1" transform="translate(0,536.6590280051189)"><line stroke="currentColor" x2="-6"/><text fill="currentColor" x="-9" dy="0.32em">Iran</text></g><g class="tick" opacity="1" transform="translate(0,545.9920835689416)"><line stroke="currentColor" x2="-6"/><text fill="currentColor" x="-9" dy="0.32em">Thailand</text></g><g class="tick" opacity="1" transform="translate(0,555.325139132764)"><line stroke="currentColor" x2="-6"/><text fill="currentColor" x="-9" dy="0.32em">Italy</text></g><text font-family="Arial, sans-serif" font-size="10" x="4" fill="black" font-weight="bold" text-anchor="start" dominant-baseline="hanging">Country</text></g></g><text y="4" x="4" style="font-family: Arial, sans-serif; font-size: 12px; fill: black; font-weight: bold; dominant-baseline: hanging;"/></g></g><g id="legend" transform="translate(805,20)"><g transform="translate(5,0)"><g class="legendColor" transform="translate(0,0)"><g class="legendCells" transform="translate(0,16)"><g class="cell" transform="translate(0, 0)"><rect class="swatch" height="15" width="15" style="fill: rgb(35, 23, 27);"/><text class="label" transform="translate( 20, 12.5)" font-family="&quot;Arial&quot;, sans-serif" font-size="10px"><tspan x="0" dy="0em">Australia</tspan></text></g><g class="cell" transform="translate(0, 21)"><rect class="swatch" height="15" width="15" style="fill: rgb(52, 33, 77);"/><text class="label" transform="translate( 20, 12.5)" font-family="&quot;Arial&quot;, sans-serif" font-size="10px"><tspan x="0" dy="0em">Austria</tspan></text></g><g class="cell" transform="translate(0, 42)"><rect class="swatch" height="15" width="15" style="fill: rgb(63, 43, 119);"/><text class="label" transform="translate( 20, 12.5)" font-family="&quot;Arial&quot;, sans-serif" font-size="10px"><tspan x="0" dy="0em">Bangladesh</tspan></text></g><g class="cell" transform="translate(0, 63)"><rect class="swatch" height="15" width="15" style="fill: rgb(70, 54, 154);"/><text class="label" transform="translate( 20, 12.5)" font-family="&quot;Arial&quot;, sans-serif" font-size="10px"><tspan x="0" dy="0em">Belgium</tspan></text></g><g class="cell" transform="translate(0, 84)"><rect class="swatch" height="15" width="15" style="fill: rgb(74, 66, 183);"/><text class="label" transform="translate( 20, 12.5)" font-family="&quot;Arial&quot;, sans-serif" font-size="10px"><tspan x="0" dy="0em">Bulgaria</tspan></text></g><g class="cell" transform="translate(0, 105)"><rect class="swatch" height="15" width="15" style="fill: rgb(75, 77, 205);"/><text class="label" transform="translate( 20, 12.5)" font-family="&quot;Arial&quot;, sans-serif" font-size="10px"><tspan x="0" dy="0em">Canada</tspan></text></g><g class="cell" transform="translate(0, 126)"><rect class="swatch" height="15" width="15" style="fill: rgb(73, 89, 222);"/><text class="label" transform="translate( 20, 12.5)" font-family="&quot;Arial&quot;, sans-serif" font-size="10px"><tspan x="0" dy="0em">Croatia</tspan></text></g><g class="cell" transform="translate(0, 147)"><rect class="swatch" height="15" width="15" style="fill: rgb(70, 101, 235);"/><text class="label" transform="translate( 20, 12.5)" font-family="&quot;Arial&quot;, sans-serif" font-size="10px"><tspan x="0" dy="0em">Cyprus</tspan></text></g><g class="cell" transform="translate(0, 168)"><rect class="swatch" height="15" width="15" style="fill: rgb(66, 113, 243);"/><text class="label" transform="translate( 20, 12.5)" font-family="&quot;Arial&quot;, sans-serif" font-size="10px"><tspan x="0" dy="0em">Czechia</tspan></text></g><g class="cell" transform="translate(0, 189)"><rect class="swatch" height="15" width="15" style="fill: rgb(61, 125, 247);"/><text class="label" transform="translate( 20, 12.5)" font-family="&quot;Arial&quot;, sans-serif" font-size="10px"><tspan x="0" dy="0em">Denmark</tspan></text></g><g class="cell" transform="translate(0, 210)"><rect class="swatch" height="15" width="15" style="fill: rgb(56, 137, 249);"/><text class="label" transform="translate( 20, 12.5)" font-family="&quot;Arial&quot;, sans-serif" font-size="10px"><tspan x="0" dy="0em">Egypt</tspan></text></g><g class="cell" transform="translate(0, 231)"><rect class="swatch" height="15" width="15" style="fill: rgb(51, 148, 248);"/><text class="label" transform="translate( 20, 12.5)" font-family="&quot;Arial&quot;, sans-serif" font-size="10px"><tspan x="0" dy="0em">Ethiopia</tspan></text></g><g class="cell" transform="translate(0, 252)"><rect class="swatch" height="15" width="15" style="fill: rgb(46, 159, 244);"/><text class="label" transform="translate( 20, 12.5)" font-family="&quot;Arial&quot;, sans-serif" font-size="10px"><tspan x="0" dy="0em">France</tspan></text></g><g class="cell" transform="translate(0, 273)"><rect class="swatch" height="15" width="15" style="fill: rgb(42, 170, 238);"/><text class="label" transform="translate( 20, 12.5)" font-family="&quot;Arial&quot;, sans-serif" font-size="10px"><tspan x="0" dy="0em">Germany</tspan></text></g><g class="cell" transform="translate(0, 294)"><rect class="swatch" height="15" width="15" style="fill: rgb(39, 181, 231);"/><text class="label" transform="translate( 20, 12.5)" font-family="&quot;Arial&quot;, sans-serif" font-size="10px"><tspan x="0" dy="0em">Ghana</tspan></text></g><g class="cell" transform="translate(0, 315)"><rect class="swatch" height="15" width="15" style="fill: rgb(38, 191, 223);"/><text class="label" transform="translate( 20, 12.5)" font-family="&quot;Arial&quot;, sans-serif" font-size="10px"><tspan x="0" dy="0em">Greece</tspan></text></g><g class="cell" transform="translate(0, 336)"><rect class="swatch" height="15" width="15" style="fill: rgb(37, 200, 213);"/><text class="label" transform="translate( 20, 12.5)" font-family="&quot;Arial&quot;, sans-serif" font-size="10px"><tspan x="0" dy="0em">Hong Kong</tspan></text></g><g class="cell" transform="translate(0, 357)"><rect class="swatch" height="15" width="15" style="fill: rgb(38, 209, 203);"/><text class="label" transform="translate( 20, 12.5)" font-family="&quot;Arial&quot;, sans-serif" font-size="10px"><tspan x="0" dy="0em">India</tspan></text></g><g class="cell" transform="translate(0, 378)"><rect class="swatch" height="15" width="15" style="fill: rgb(40, 217, 193);"/><text class="label" transform="translate( 20, 12.5)" font-family="&quot;Arial&quot;, sans-serif" font-size="10px"><tspan x="0" dy="0em">Indonesia</tspan></text></g><g class="cell" transform="translate(0, 399)"><rect class="swatch" height="15" width="15" style="fill: rgb(43, 224, 182);"/><text class="label" transform="translate( 20, 12.5)" font-family="&quot;Arial&quot;, sans-serif" font-size="10px"><tspan x="0" dy="0em">Iran</tspan></text></g><g class="cell" transform="translate(0, 420)"><rect class="swatch" height="15" width="15" style="fill: rgb(48, 231, 170);"/><text class="label" transform="translate( 20, 12.5)" font-family="&quot;Arial&quot;, sans-serif" font-size="10px"><tspan x="0" dy="0em">Iraq</tspan></text></g><g class="cell" transform="translate(0, 441)"><rect class="swatch" height="15" width="15" style="fill: rgb(55, 237, 159);"/><text class="label" transform="translate( 20, 12.5)" font-family="&quot;Arial&quot;, sans-serif" font-size="10px"><tspan x="0" dy="0em">Ireland</tspan></text></g><g class="cell" transform="translate(0, 462)"><rect class="swatch" height="15" width="15" style="fill: rgb(62, 242, 148);"/><text class="label" transform="translate( 20, 12.5)" font-family="&quot;Arial&quot;, sans-serif" font-size="10px"><tspan x="0" dy="0em">Italy</tspan></text></g><g class="cell" transform="translate(0, 483)"><rect class="swatch" height="15" width="15" style="fill: rgb(71, 246, 138);"/><text class="label" transform="translate( 20, 12.5)" font-family="&quot;Arial&quot;, sans-serif" font-size="10px"><tspan x="0" dy="0em">Kenya</tspan></text></g><g class="cell" transform="translate(0, 504)"><rect class="swatch" height="15" width="15" style="fill: rgb(81, 249, 127);"/><text class="label" transform="translate( 20, 12.5)" font-family="&quot;Arial&quot;, sans-serif" font-size="10px"><tspan x="0" dy="0em">Kuwait</tspan></text></g><g class="cell" transform="translate(0, 525)"><rect class="swatch" height="15" width="15" style="fill: rgb(92, 252, 118);"/><text class="label" transform="translate( 20, 12.5)" font-family="&quot;Arial&quot;, sans-serif" font-size="10px"><tspan x="0" dy="0em">Lebanon</tspan></text></g><g class="cell" transform="translate(0, 546)"><rect class="swatch" height="15" width="15" style="fill: rgb(103, 253, 108);"/><text class="label" transform="translate( 20, 12.5)" font-family="&quot;Arial&quot;, sans-serif" font-size="10px"><tspan x="0" dy="0em">Malaysia</tspan></text></g><g class="cell" transform="translate(0, 567)"><rect class="swatch" height="15" width="15" style="fill: rgb(116, 254, 100);"/><text class="label" transform="translate( 20, 12.5)" font-family="&quot;Arial&quot;, sans-serif" font-size="10px"><tspan x="0" dy="0em">Mauritius</tspan></text></g><g class="cell" transform="translate(0, 588)"><rect class="swatch" height="15" width="15" style="fill: rgb(129, 253, 92);"/><text class="label" transform="translate( 20, 12.5)" font-family="&quot;Arial&quot;, sans-serif" font-size="10px"><tspan x="0" dy="0em">Mexico</tspan></text></g><g class="cell" transform="translate(0, 609)"><rect class="swatch" height="15" width="15" style="fill: rgb(142, 252, 84);"/><text class="label" transform="translate( 20, 12.5)" font-family="&quot;Arial&quot;, sans-serif" font-size="10px"><tspan x="0" dy="0em">Morocco</tspan></text></g><g class="cell" transform="translate(0, 630)"><rect class="swatch" height="15" width="15" style="fill: rgb(155, 249, 77);"/><text class="label" transform="translate( 20, 12.5)" font-family="&quot;Arial&quot;, sans-serif" font-size="10px"><tspan x="0" dy="0em">Nepal</tspan></text></g><g class="cell" transform="translate(0, 651)"><rect class="swatch" height="15" width="15" style="fill: rgb(169, 246, 71);"/><text class="label" transform="translate( 20, 12.5)" font-family="&quot;Arial&quot;, sans-serif" font-size="10px"><tspan x="0" dy="0em">Netherlands</tspan></text></g><g class="cell" transform="translate(0, 672)"><rect class="swatch" height="15" width="15" style="fill: rgb(182, 242, 65);"/><text class="label" transform="translate( 20, 12.5)" font-family="&quot;Arial&quot;, sans-serif" font-size="10px"><tspan x="0" dy="0em">New Zealand</tspan></text></g><g class="cell" transform="translate(0, 693)"><rect class="swatch" height="15" width="15" style="fill: rgb(194, 237, 60);"/><text class="label" transform="translate( 20, 12.5)" font-family="&quot;Arial&quot;, sans-serif" font-size="10px"><tspan x="0" dy="0em">Nigeria</tspan></text></g><g class="cell" transform="translate(0, 714)"><rect class="swatch" height="15" width="15" style="fill: rgb(206, 231, 56);"/><text class="label" transform="translate( 20, 12.5)" font-family="&quot;Arial&quot;, sans-serif" font-size="10px"><tspan x="0" dy="0em">Norway</tspan></text></g><g class="cell" transform="translate(0, 735)"><rect class="swatch" height="15" width="15" style="fill: rgb(218, 224, 52);"/><text class="label" transform="translate( 20, 12.5)" font-family="&quot;Arial&quot;, sans-serif" font-size="10px"><tspan x="0" dy="0em">Oman</tspan></text></g><g class="cell" transform="translate(0, 756)"><rect class="swatch" height="15" width="15" style="fill: rgb(228, 216, 48);"/><text class="label" transform="translate( 20, 12.5)" font-family="&quot;Arial&quot;, sans-serif" font-size="10px"><tspan x="0" dy="0em">Pakistan</tspan></text></g><g class="cell" transform="translate(0, 777)"><rect class="swatch" height="15" width="15" style="fill: rgb(237, 208, 45);"/><text class="label" transform="translate( 20, 12.5)" font-family="&quot;Arial&quot;, sans-serif" font-size="10px"><tspan x="0" dy="0em">Philippines</tspan></text></g><g class="cell" transform="translate(0, 798)"><rect class="swatch" height="15" width="15" style="fill: rgb(245, 199, 42);"/><text class="label" transform="translate( 20, 12.5)" font-family="&quot;Arial&quot;, sans-serif" font-size="10px"><tspan x="0" dy="0em">Poland</tspan></text></g><g class="cell" transform="translate(0, 819)"><rect class="swatch" height="15" width="15" style="fill: rgb(252, 189, 40);"/><text class="label" transform="translate( 20, 12.5)" font-family="&quot;Arial&quot;, sans-serif" font-size="10px"><tspan x="0" dy="0em">Qatar</tspan></text></g><g class="cell" transform="translate(0, 840)"><rect class="swatch" height="15" width="15" style="fill: rgb(255, 179, 38);"/><text class="label" transform="translate( 20, 12.5)" font-family="&quot;Arial&quot;, sans-serif" font-size="10px"><tspan x="0" dy="0em">Romania</tspan></text></g><g class="cell" transform="translate(0, 861)"><rect class="swatch" height="15" width="15" style="fill: rgb(255, 168, 36);"/><text class="label" transform="translate( 20, 12.5)" font-family="&quot;Arial&quot;, sans-serif" font-size="10px"><tspan x="0" dy="0em">Saudi Arabia</tspan></text></g><g class="cell" transform="translate(0, 882)"><rect class="swatch" height="15" width="15" style="fill: rgb(255, 156, 34);"/><text class="label" transform="translate( 20, 12.5)" font-family="&quot;Arial&quot;, sans-serif" font-size="10px"><tspan x="0" dy="0em">Serbia</tspan></text></g><g class="cell" transform="translate(0, 903)"><rect class="swatch" height="15" width="15" style="fill: rgb(255, 145, 32);"/><text class="label" transform="translate( 20, 12.5)" font-family="&quot;Arial&quot;, sans-serif" font-size="10px"><tspan x="0" dy="0em">Singapore</tspan></text></g><g class="cell" transform="translate(0, 924)"><rect class="swatch" height="15" width="15" style="fill: rgb(255, 133, 30);"/><text class="label" transform="translate( 20, 12.5)" font-family="&quot;Arial&quot;, sans-serif" font-size="10px"><tspan x="0" dy="0em">South Africa</tspan></text></g><g class="cell" transform="translate(0, 945)"><rect class="swatch" height="15" width="15" style="fill: rgb(255, 121, 28);"/><text class="label" transform="translate( 20, 12.5)" font-family="&quot;Arial&quot;, sans-serif" font-size="10px"><tspan x="0" dy="0em">South Korea</tspan></text></g><g class="cell" transform="translate(0, 966)"><rect class="swatch" height="15" width="15" style="fill: rgb(253, 109, 26);"/><text class="label" transform="translate( 20, 12.5)" font-family="&quot;Arial&quot;, sans-serif" font-size="10px"><tspan x="0" dy="0em">Spain</tspan></text></g><g class="cell" transform="translate(0, 987)"><rect class="swatch" height="15" width="15" style="fill: rgb(247, 97, 24);"/><text class="label" transform="translate( 20, 12.5)" font-family="&quot;Arial&quot;, sans-serif" font-size="10px"><tspan x="0" dy="0em">Sri Lanka</tspan></text></g><g class="cell" transform="translate(0, 1008)"><rect class="swatch" height="15" width="15" style="fill: rgb(239, 85, 22);"/><text class="label" transform="translate( 20, 12.5)" font-family="&quot;Arial&quot;, sans-serif" font-size="10px"><tspan x="0" dy="0em">Sweden</tspan></text></g><g class="cell" transform="translate(0, 1029)"><rect class="swatch" height="15" width="15" style="fill: rgb(231, 74, 19);"/><text class="label" transform="translate( 20, 12.5)" font-family="&quot;Arial&quot;, sans-serif" font-size="10px"><tspan x="0" dy="0em">Switzerland</tspan></text></g><g class="cell" transform="translate(0, 1050)"><rect class="swatch" height="15" width="15" style="fill: rgb(221, 63, 17);"/><text class="label" transform="translate( 20, 12.5)" font-family="&quot;Arial&quot;, sans-serif" font-size="10px"><tspan x="0" dy="0em">Syria</tspan></text></g><g class="cell" transform="translate(0, 1071)"><rect class="swatch" height="15" width="15" style="fill: rgb(210, 53, 14);"/><text class="label" transform="translate( 20, 12.5)" font-family="&quot;Arial&quot;, sans-serif" font-size="10px"><tspan x="0" dy="0em">Tanzania</tspan></text></g><g class="cell" transform="translate(0, 1092)"><rect class="swatch" height="15" width="15" style="fill: rgb(199, 43, 12);"/><text class="label" transform="translate( 20, 12.5)" font-family="&quot;Arial&quot;, sans-serif" font-size="10px"><tspan x="0" dy="0em">Thailand</tspan></text></g><g class="cell" transform="translate(0, 1113)"><rect class="swatch" height="15" width="15" style="fill: rgb(187, 34, 9);"/><text class="label" transform="translate( 20, 12.5)" font-family="&quot;Arial&quot;, sans-serif" font-size="10px"><tspan x="0" dy="0em">Turkey</tspan></text></g><g class="cell" transform="translate(0, 1134)"><rect class="swatch" height="15" width="15" style="fill: rgb(176, 27, 6);"/><text class="label" transform="translate( 20, 12.5)" font-family="&quot;Arial&quot;, sans-serif" font-size="10px"><tspan x="0" dy="0em">Uganda</tspan></text></g><g class="cell" transform="translate(0, 1155)"><rect class="swatch" height="15" width="15" style="fill: rgb(166, 21, 3);"/><text class="label" transform="translate( 20, 12.5)" font-family="&quot;Arial&quot;, sans-serif" font-size="10px"><tspan x="0" dy="0em">United Arab Emirates</tspan></text></g><g class="cell" transform="translate(0, 1176)"><rect class="swatch" height="15" width="15" style="fill: rgb(157, 16, 0);"/><text class="label" transform="translate( 20, 12.5)" font-family="&quot;Arial&quot;, sans-serif" font-size="10px"><tspan x="0" dy="0em">United Kingdom</tspan></text></g><g class="cell" transform="translate(0, 1197)"><rect class="swatch" height="15" width="15" style="fill: rgb(150, 13, 0);"/><text class="label" transform="translate( 20, 12.5)" font-family="&quot;Arial&quot;, sans-serif" font-size="10px"><tspan x="0" dy="0em">United States</tspan></text></g><g class="cell" transform="translate(0, 1218)"><rect class="swatch" height="15" width="15" style="fill: rgb(145, 11, 0);"/><text class="label" transform="translate( 20, 12.5)" font-family="&quot;Arial&quot;, sans-serif" font-size="10px"><tspan x="0" dy="0em">Vietnam</tspan></text></g><g class="cell" transform="translate(0, 1239)"><rect class="swatch" height="15" width="15" style="fill: rgb(144, 12, 0);"/><text class="label" transform="translate( 20, 12.5)" font-family="&quot;Arial&quot;, sans-serif" font-size="10px"><tspan x="0" dy="0em">Zimbabwe</tspan></text></g></g><text class="legendTitle" font-family="&quot;Arial&quot;, sans-serif" font-size="12px" font-weight="bold"><tspan x="0" dy="0em">Country</tspan></text></g></g></g></svg>